<svg aria-hidden="true" style="position: absolute; width: 0; height: 0; overflow: hidden;" version="1.1" xmlns="http://www.w3.org/2000/svg" xmlns:xlink="http://www.w3.org/1999/xlink">
<defs>
<symbol id="icon-streetsign" viewBox="0 0 29 32">
<path d="M15 31.5v-9.5c0-0.276-0.133-1-0.409-1s-0.591 0.224-0.591 0.5v10c0 0.276 0.314 0.5 0.591 0.5s0.409-0.224 0.409-0.5zM15.091 1.562v-1.062c0-0.276-0.224-0.5-0.5-0.5s-0.5 0.224-0.5 0.5v1.062c0 0.276 0.224 0.5 0.5 0.5s0.5-0.223 0.5-0.5zM3.89 3.471l-3.567 2.798c-0.205 0.189-0.323 0.456-0.323 0.731s0.118 0.542 0.354 0.758l3.505 2.745c0.307 0.283 0.854 0.497 1.273 0.497h13.828c0.573 0 1.040-0.463 1.040-1.033v-5.934c0-0.57-0.467-1.033-1.040-1.033h-13.828c-0.419 0-0.966 0.214-1.242 0.471zM19 9.967c0 0.015-0.018 0.033-0.040 0.033h-13.828c-0.17 0-0.471-0.117-0.625-0.258l-3.536-2.713 3.566-2.798c0.125-0.114 0.425-0.231 0.595-0.231l13.868 0.033v5.934zM25.141 12.497c-0.307-0.283-0.854-0.497-1.273-0.497h-13.828c-0.573 0-1.040 0.463-1.040 1.033v5.935c0 0.569 0.467 1.032 1.040 1.032h13.828c0.419 0 0.966-0.214 1.243-0.471l3.566-2.798c0.205-0.189 0.323-0.456 0.323-0.731s-0.118-0.542-0.354-0.758l-3.505-2.745zM10 13h13.868c0.17 0 0.471 0.117 0.625 0.258l3.536 2.713-3.566 2.798c-0.125 0.114-0.425 0.231-0.595 0.231h-13.868v-6z"></path>
</symbol>
<symbol id="icon-display" viewBox="0 0 32 32">
<path d="M27 4.996l-22 0.004c-0.553 0-1 0.443-1 0.996v14c0 0.553 0.447 1 1 1h22c0.553 0 1-0.447 1-1v-14c0-0.553-0.447-1-1-1zM27 20h-22v-14.004h22v14.004zM29 1h-26c-1.657 0-3 1.342-3 3v20c0 1.654 1.338 2.994 2.99 2.998h10.010v1.217l-6.242 0.811c-0.446 0.111-0.758 0.511-0.758 0.97 0 0.553 0.447 1 1 1h18c0.553 0 1-0.447 1-1 0-0.459-0.312-0.859-0.758-0.971l-6.242-0.81v-1.217h10.010c1.652-0.004 2.99-1.344 2.99-2.998v-20c0-1.658-1.344-3-3-3zM30 24c0 0.551-0.449 1-1 1h-26c-0.552 0-1-0.449-1-1v-20c0-0.552 0.448-1 1-1h26c0.551 0 1 0.448 1 1v20z"></path>
</symbol>
<symbol id="icon-truck" viewBox="0 0 32 32">
<path d="M24.832 11.445c-0.186-0.278-0.498-0.445-0.832-0.445h-1c-0.553 0-1 0.447-1 1v6c0 0.553 0.447 1 1 1h4c0.553 0 1-0.447 1-1v-1.5c0-0.197-0.059-0.391-0.168-0.555l-3-4.5zM27 18h-4v-6h1l3 4.5v1.5zM31.496 15.336l-4-6c-0.558-0.837-1.492-1.336-2.496-1.336h-4v-2c0-1.654-1.346-3-3-3h-15c-1.654 0-3 1.346-3 3v11c0 1.654 1.346 3 3 3v0 3c0 1.654 1.346 3 3 3h1.142c0.447 1.721 2 3 3.859 3 1.857 0 3.41-1.279 3.857-3h5.282c0.447 1.721 2 3 3.859 3 1.857 0 3.41-1.279 3.857-3h1.144c1.654 0 3-1.346 3-3v-6c0-0.594-0.174-1.17-0.504-1.664zM3 18c-0.552 0-1-0.447-1-1v-11c0-0.553 0.448-1 1-1h15c0.553 0 1 0.447 1 1v11c0 0.553-0.447 1-1 1h-15zM11.001 27c-1.105 0-2-0.896-2-2s0.895-2 2-2c1.104 0 2 0.896 2 2s-0.897 2-2 2zM24 27c-1.105 0-2-0.896-2-2s0.895-2 2-2c1.104 0 2 0.896 2 2s-0.896 2-2 2zM30 23c0 0.553-0.447 1-1 1h-1.143c-0.447-1.721-2-3-3.857-3-1.859 0-3.412 1.279-3.859 3h-5.282c-0.447-1.721-2-3-3.857-3-1.859 0-3.412 1.279-3.859 3h-1.143c-0.552 0-1-0.447-1-1v-3h13c1.654 0 3-1.346 3-3v-7h4c0.334 0 0.646 0.167 0.832 0.445l4 6c0.109 0.164 0.168 0.358 0.168 0.555v6z"></path>
</symbol>
<symbol id="icon-document-list" viewBox="0 0 32 32">
<path d="M19.5 3h0.5l6 7v18.009c0 1.093-0.894 1.991-1.997 1.991h-15.005c-1.107 0-1.997-0.899-1.997-2.007v-22.985c0-1.109 0.897-2.007 2.003-2.007h10.497zM19 4h-10.004c-0.55 0-0.996 0.455-0.996 0.995v23.009c0 0.55 0.455 0.995 1 0.995h15c0.552 0 1-0.445 1-0.993v-17.007h-4.002c-1.103 0-1.998-0.887-1.998-2.006v-4.994zM20 4.5v4.491c0 0.557 0.451 1.009 0.997 1.009h3.703l-4.7-5.5zM15 14v1h8v-1h-8zM10 13h3v3h-3v-3zM11 14v1h1v-1h-1zM10 18h3v3h-3v-3zM11 19v1h1v-1h-1zM15 19v1h8v-1h-8zM10 23h3v3h-3v-3zM11 24v1h1v-1h-1zM15 24v1h8v-1h-8z"></path>
</symbol>
<symbol id="icon-box-filled" viewBox="0 0 32 32">
<path d="M3 12l5-8h15l5 8v16h-25v-16zM26.775 12l-4.375-7h-13.8l-4.375 7h22.55zM4 13v14h23v-14h-23zM12.997 18h5.005c1.102 0 1.997 0.895 1.997 2 0 1.112-0.894 2-1.997 2h-5.005c-1.102 0-1.997-0.895-1.997-2 0-1.112 0.894-2 1.997-2zM13.003 19c-0.554 0-1.003 0.444-1.003 1 0 0.552 0.438 1 1.003 1h4.994c0.554 0 1.003-0.444 1.003-1 0-0.552-0.438-1-1.003-1h-4.994zM10 6l-0.6 1h12.2l-0.6-1h-11zM8.7 8l-0.6 1h14.8l-0.6-1h-13.6zM7.5 10l-0.6 1h17.2l-0.6-1h-16z"></path>
</symbol>
<symbol id="icon-box" viewBox="0 0 32 32">
<path d="M4 13h-2v-8h27v8h-2v15h-23v-15zM5 13v14h21v-14h-21zM3 6v6h25v-6h-25zM12.997 18h5.005c1.102 0 1.997 0.895 1.997 2 0 1.112-0.894 2-1.997 2h-5.005c-1.102 0-1.997-0.895-1.997-2 0-1.112 0.894-2 1.997-2zM13.003 19c-0.554 0-1.003 0.444-1.003 1 0 0.552 0.438 1 1.003 1h4.994c0.554 0 1.003-0.444 1.003-1 0-0.552-0.438-1-1.003-1h-4.994z"></path>
</symbol>
<symbol id="icon-clear" viewBox="0 0 24 24">
<path d="M18.984 6.422l-5.578 5.578 5.578 5.578-1.406 1.406-5.578-5.578-5.578 5.578-1.406-1.406 5.578-5.578-5.578-5.578 1.406-1.406 5.578 5.578 5.578-5.578z"></path>
</symbol>
<symbol id="icon-keyboard_arrow_down" viewBox="0 0 24 24">
<path d="M7.406 8.578l4.594 4.594 4.594-4.594 1.406 1.406-6 6-6-6z"></path>
</symbol>
<symbol id="icon-trending_up" viewBox="0 0 24 24">
<path d="M15.984 6h6v6l-2.297-2.297-6.281 6.281-3.984-3.984-6 6-1.406-1.406 7.406-7.406 3.984 3.984 4.875-4.875z"></path>
</symbol>
<symbol id="icon-edit" viewBox="0 0 20 20">
<path d="M17.561 2.439c-1.442-1.443-2.525-1.227-2.525-1.227l-12.826 12.825-1.010 4.762 4.763-1.010 12.826-12.823c-0.001 0 0.216-1.083-1.228-2.527zM5.68 17.217l-1.624 0.35c-0.156-0.293-0.345-0.586-0.69-0.932s-0.639-0.533-0.932-0.691l0.35-1.623 0.47-0.469c0 0 0.883 0.018 1.881 1.016 0.997 0.996 1.016 1.881 1.016 1.881l-0.471 0.468z"></path>
</symbol>
<symbol id="icon-key" viewBox="0 0 20 20">
<path d="M17.691 4.725c-0.503-2.977-3.22-4.967-6.069-4.441s-5.256 2.816-4.753 5.795c0.107 0.641 0.408 1.644 0.763 2.365l-5.175 7.723c-0.191 0.285-0.299 0.799-0.242 1.141l0.333 1.971c0.058 0.342 0.372 0.572 0.7 0.514l1.516-0.281c0.328-0.059 0.744-0.348 0.924-0.639l2.047-3.311 0.018-0.022 1.386-0.256 2.39-3.879c0.785 0.139 1.912 0.092 2.578-0.031 2.848-0.526 4.087-3.67 3.584-6.649zM15.166 6.252c-0.784 1.17-1.584 0.346-2.703-0.475-1.119-0.818-2.135-1.322-1.352-2.492s2.326-1.455 3.447-0.635c1.12 0.819 1.391 2.432 0.608 3.602z"></path>
</symbol>
<symbol id="icon-magnifying-glass" viewBox="0 0 20 20">
<path d="M17.545 15.467l-3.779-3.779c0.57-0.935 0.898-2.035 0.898-3.21 0-3.417-2.961-6.377-6.378-6.377s-6.186 2.769-6.186 6.186c0 3.416 2.961 6.377 6.377 6.377 1.137 0 2.2-0.309 3.115-0.844l3.799 3.801c0.372 0.371 0.975 0.371 1.346 0l0.943-0.943c0.371-0.371 0.236-0.84-0.135-1.211zM4.004 8.287c0-2.366 1.917-4.283 4.282-4.283s4.474 2.107 4.474 4.474c0 2.365-1.918 4.283-4.283 4.283s-4.473-2.109-4.473-4.474z"></path>
</symbol>
<symbol id="icon-user" viewBox="0 0 20 20">
<path d="M7.725 2.146c-1.016 0.756-1.289 1.953-1.239 2.59 0.064 0.779 0.222 1.793 0.222 1.793s-0.313 0.17-0.313 0.854c0.109 1.717 0.683 0.976 0.801 1.729 0.284 1.814 0.933 1.491 0.933 2.481 0 1.649-0.68 2.42-2.803 3.334-2.13 0.918-4.326 2.073-4.326 4.073v1h18v-1c0-2-2.197-3.155-4.328-4.072-2.123-0.914-2.801-1.684-2.801-3.334 0-0.99 0.647-0.667 0.932-2.481 0.119-0.753 0.692-0.012 0.803-1.729 0-0.684-0.314-0.854-0.314-0.854s0.158-1.014 0.221-1.793c0.065-0.817-0.398-2.561-2.3-3.096-0.333-0.34-0.558-0.881 0.466-1.424-2.24-0.105-2.761 1.067-3.954 1.929z"></path>
</symbol>
<symbol id="icon-stack" viewBox="0 0 32 32">
<path d="M32 10l-16-8-16 8 16 8 16-8zM16 4.655l10.689 5.345-10.689 5.345-10.689-5.345 10.689-5.345zM28.795 14.398l3.205 1.602-16 8-16-8 3.205-1.602 12.795 6.398zM28.795 20.398l3.205 1.602-16 8-16-8 3.205-1.602 12.795 6.398z"></path>
</symbol>
</defs>
</svg>
